<svg width="52" height="40" viewBox="0 0 52 40" fill="none" xmlns="http://www.w3.org/2000/svg">
<path d="M17.4255 0C10.3723 0 0 11.1945 0 25.1195C0 34.4027 4.84043 40 11.617 40C17.0106 40 22.266 36.041 22.266 29.8976C22.266 24.3003 17.5638 19.7952 12.0319 19.7952H11.3404C11.4787 15.4266 13.6915 12.0137 18.5319 9.28328C20.883 8.05461 21.9894 6.41638 21.9894 4.50512C21.9894 2.45734 20.6064 0 17.4255 0ZM47.1596 0C40.1064 0 29.734 11.1945 29.734 25.1195C29.734 34.4027 34.5745 40 41.3511 40C46.7447 40 52 36.041 52 29.8976C52 24.3003 47.2979 19.7952 41.766 19.7952H41.0745C41.3511 15.4266 43.4255 12.0137 48.266 9.28328C50.617 8.05461 51.7234 6.41638 51.7234 4.50512C51.7234 2.45734 50.3404 0 47.1596 0Z" fill="#008A16"/>
</svg>
